<svg width="42" height="22" viewBox="0 0 42 22" fill="none" xmlns="http://www.w3.org/2000/svg">
<path d="M32.3531 3.19999C36.75 3.19999 40.3594 6.86666 40.3594 11.3333C40.3594 15.8 36.75 19.4667 32.3531 19.4667C29.2031 19.4667 26.3813 17.6 25.0688 14.6667C24.8062 14.0667 24.2156 13.6667 23.5594 13.6667H18.4406C17.7844 13.6667 17.1938 14.0667 16.9312 14.6667C15.6187 17.6 12.7969 19.4667 9.64687 19.4667C5.25 19.4 1.70625 15.7333 1.70625 11.2667C1.70625 6.79999 5.31563 3.13333 9.7125 3.13333H32.3531M32.3531 1.53333H9.64687C4.33125 1.53333 0 5.93333 0 11.3333C0 16.7333 4.33125 21.1333 9.64687 21.1333C13.5188 21.1333 16.9312 18.8 18.4406 15.4H23.5594C25.0688 18.8 28.4156 21.1333 32.3531 21.1333C37.6688 21.1333 42 16.7333 42 11.3333C41.9344 5.86666 37.6688 1.53333 32.3531 1.53333Z" fill="#F8B415"/>
<path d="M9.64688 15.8667C12.1477 15.8667 14.175 13.8072 14.175 11.2667C14.175 8.72618 12.1477 6.66669 9.64688 6.66669C7.14606 6.66669 5.11875 8.72618 5.11875 11.2667C5.11875 13.8072 7.14606 15.8667 9.64688 15.8667Z" stroke="#F8B415" stroke-width="1.5" stroke-miterlimit="10" stroke-linejoin="round"/>
<path d="M32.3531 4.93335C28.9406 4.93335 26.1188 7.80002 26.1188 11.2667C26.1188 14.7334 28.9406 17.6 32.3531 17.6C35.7656 17.6 38.5875 14.7334 38.5875 11.2667C38.5875 7.80002 35.7656 4.93335 32.3531 4.93335ZM29.4656 12.4667C28.8094 12.4667 28.35 11.9334 28.35 11.3334C28.35 10.7334 28.875 10.2 29.4656 10.2C30.0563 10.2 30.5813 10.7334 30.5813 11.3334C30.5813 11.9334 30.1219 12.4667 29.4656 12.4667ZM32.3531 15.3334C31.6969 15.3334 31.2375 14.8 31.2375 14.2C31.2375 13.6 31.7625 13.0667 32.3531 13.0667C33.0094 13.0667 33.4688 13.6 33.4688 14.2C33.4688 14.8 32.9438 15.3334 32.3531 15.3334ZM32.3531 9.53335C31.6969 9.53335 31.2375 9.00002 31.2375 8.40002C31.2375 7.80002 31.7625 7.26668 32.3531 7.26668C33.0094 7.26668 33.4688 7.80002 33.4688 8.40002C33.4688 9.00002 32.9438 9.53335 32.3531 9.53335ZM35.175 12.4667C34.5188 12.4667 34.0594 11.9334 34.0594 11.3334C34.0594 10.7334 34.5844 10.2 35.175 10.2C35.7656 10.2 36.2906 10.7334 36.2906 11.3334C36.2906 11.9334 35.7656 12.4667 35.175 12.4667Z" fill="#F8B415"/>
<path d="M10.3687 10.5333V9H8.99062V10.5333H7.35V12H8.99062V13.6H10.3687V12H11.9437V10.5333H10.3687Z" fill="#F8B415"/>
<path d="M21.1313 11.6667C20.9344 11.4667 20.9344 11.0667 21.1313 10.8667L22.575 9.4C22.7719 9.2 23.1656 9.2 23.3625 9.4C23.5594 9.6 23.5594 10 23.3625 10.2L21.9188 11.6667C21.7219 11.9333 21.3281 11.9333 21.1313 11.6667Z" fill="#F8B415"/>
<path d="M17.7844 11.6667C17.5875 11.4667 17.5875 11.0667 17.7844 10.8667L19.2281 9.4C19.425 9.2 19.8187 9.2 20.0156 9.4C20.2125 9.6 20.2125 10 20.0156 10.2L18.5719 11.6667C18.375 11.9333 17.9813 11.9333 17.7844 11.6667Z" fill="#F8B415"/>
<path d="M14.175 0.93335H9.05625C8.4 0.93335 7.94063 1.46668 7.94063 2.06668H15.2906C15.3563 1.46668 14.8313 0.93335 14.175 0.93335Z" fill="#F8B415"/>
<path d="M32.8781 0.93335H27.7594C27.1031 0.93335 26.6438 1.46668 26.6438 2.06668H33.9938C34.0594 1.46668 33.5344 0.93335 32.8781 0.93335Z" fill="#F8B415"/>
</svg>
