<svg width="18" height="19" viewBox="0 0 18 19" fill="none" xmlns="http://www.w3.org/2000/svg">
<path d="M1.17092 13.0498V6.8356C1.17092 6.19761 1.19578 5.6259 1.26206 5.12048C1.56863 2.39452 2.8529 1.6571 6.3577 1.6571H11.5362C15.0327 1.6571 16.3252 2.39452 16.6235 5.12048C16.6981 5.6259 16.7147 6.19761 16.7147 6.8356V13.0498C16.7147 13.6878 16.6898 14.2595 16.6235 14.7732C16.317 17.4909 15.0327 18.2283 11.5279 18.2283H6.3577C2.86118 18.2283 1.56863 17.4909 1.27035 14.7732C1.19578 14.2595 1.17092 13.6878 1.17092 13.0498Z" stroke="#F8B415" stroke-width="1.5" stroke-linecap="round" stroke-linejoin="round"/>
<path d="M16.5902 7.39075H13.1931" stroke="#F8B415" stroke-width="1.5" stroke-linecap="round" stroke-linejoin="round"/>
<path d="M4.69221 7.39075H1.29512" stroke="#F8B415" stroke-width="1.5" stroke-linecap="round" stroke-linejoin="round"/>
<path d="M13.1933 7.39075C13.1933 8.32702 12.431 9.08929 11.4948 9.08929H6.39084C5.92685 9.08929 5.496 8.89872 5.18943 8.58387C4.88287 8.28558 4.6923 7.86302 4.6923 7.39075C4.6923 6.45447 5.45457 5.6922 6.39084 5.6922H11.4865C11.9505 5.6922 12.3813 5.88277 12.6879 6.19762C13.0027 6.50419 13.1933 6.92675 13.1933 7.39075Z" stroke="#F8B415" stroke-width="1.5" stroke-linecap="round" stroke-linejoin="round"/>
</svg>