<svg width="20" height="20" viewBox="0 0 20 20" fill="none" xmlns="http://www.w3.org/2000/svg">
<path fill-rule="evenodd" clip-rule="evenodd" d="M10.355 4.55473C11.0715 5.03239 11.2397 6.0139 10.723 6.7028L9.9 7.8C9.67605 8.09857 9.70575 8.5164 9.96968 8.78032L15.6055 14.4161L15.4216 14.8298C15.1816 15.37 14.4401 15.4331 14.1122 14.9412L13.3741 13.834C13.1443 13.4893 12.6787 13.3962 12.334 13.626L11.9592 13.8758L11.1894 12.0796C11.1016 11.8748 10.9274 11.7196 10.7137 11.6561C10.5001 11.5926 10.2694 11.6274 10.084 11.751L9.7092 12.0008L8.9394 10.2046C8.84873 9.99308 8.66603 9.8349 8.44372 9.77542C8.22143 9.71603 7.98412 9.76192 7.8 9.9L6.7028 10.723C6.0139 11.2397 5.03239 11.0715 4.55473 10.355L2.39724 7.11877C2.00062 6.52383 2.07906 5.73165 2.58465 5.22605L5.22605 2.58465C5.73165 2.07906 6.52383 2.00062 7.11876 2.39724L10.355 4.55473ZM12.041 15.6241L12.542 15.2901L12.8642 15.7733C13.8478 17.2487 16.0721 17.0594 16.7923 15.439L17.1853 14.5547C17.3114 14.2711 17.2498 13.9391 17.0303 13.7197L11.4903 8.17965L11.923 7.60283C12.9563 6.22499 12.62 4.26198 11.1871 3.30665L7.95082 1.14916C6.76095 0.355919 5.17659 0.5128 4.1654 1.52399L1.52399 4.16539C0.5128 5.17659 0.355918 6.76095 1.14917 7.95082L3.30665 11.1871C4.26199 12.62 6.225 12.9563 7.60283 11.923L7.93657 11.6726L8.68567 13.4205C8.77343 13.6252 8.94773 13.7804 9.16133 13.8439C9.37493 13.9074 9.60563 13.8727 9.79103 13.7491L10.1659 13.4992L10.9357 15.2954C11.0234 15.5002 11.1977 15.6554 11.4113 15.7189C11.6249 15.7824 11.8556 15.7477 12.041 15.6241ZM6.00002 7.5C6.82845 7.5 7.5 6.82845 7.5 6.00002C7.5 5.17159 6.82845 4.50002 6.00002 4.50002C5.17159 4.50002 4.50002 5.17159 4.50002 6.00002C4.50002 6.82845 5.17159 7.5 6.00002 7.5Z" fill="#1A1A1D"/>
</svg>
