<svg width="21" height="23" fill="none" xmlns="http://www.w3.org/2000/svg">
    <path d="M19.127 8.637 5.03 1.194A2.88 2.88 0 0 0 3.231.896a2.961 2.961 0 0 0-1.634.847A3.244 3.244 0 0 0 .721 3.43c-.12.644-.05 1.312.201 1.912l2.417 5.71a1.182 1.182 0 0 1 0 .872l-2.417 5.71a3.349 3.349 0 0 0 .226 3.034c.274.446.65.813 1.092 1.066.442.254.938.387 1.441.387a3.025 3.025 0 0 0 1.36-.34l14.096-7.444c.5-.265.92-.672 1.214-1.176.294-.503.449-1.082.449-1.673s-.155-1.17-.45-1.674a3.09 3.09 0 0 0-1.213-1.176h-.01Zm-.896 3.796L4.134 19.876a.96.96 0 0 1-.596.092.988.988 0 0 1-.538-.284 1.082 1.082 0 0 1-.289-.558 1.118 1.118 0 0 1 .064-.632l2.406-5.71c.031-.076.058-.154.08-.234H12.2a.98.98 0 0 0 .712-.311c.19-.2.295-.47.295-.752 0-.282-.106-.553-.295-.752a.98.98 0 0 0-.712-.312H5.262a2.214 2.214 0 0 0-.08-.234L2.774 4.48a1.118 1.118 0 0 1-.064-.632c.04-.212.141-.407.289-.557a.988.988 0 0 1 .538-.284.96.96 0 0 1 .596.091l14.097 7.443c.164.09.303.225.4.392a1.108 1.108 0 0 1 0 1.11 1.031 1.031 0 0 1-.4.391Z" fill="#FD9D27"/>
</svg>
