<svg width="25" height="25" fill="none" xmlns="http://www.w3.org/2000/svg">
    <path d="M21.5 16.5h-14a1 1 0 0 1 0-2h10.44a3 3 0 0 0 2.91-2.27l1.65-6.49a1 1 0 0 0-.18-.86 1 1 0 0 0-.82-.38H7.26a3 3 0 0 0-2.82-2H3.5a1 1 0 0 0 0 2h.94a1 1 0 0 1 1 .76l.06.48 1.73 6.76a3.003 3.003 0 1 0 .27 6h.18a3 3 0 1 0 5.64 0h2.36a3 3 0 1 0 5.64 0h.18a1 1 0 0 0 0-2Zm-1.28-10-1.31 5.24a1 1 0 0 1-1 .76H9.28l-1.5-6h12.44Zm-9.72 14a1 1 0 1 1 0-2 1 1 0 0 1 0 2Zm8 0a1 1 0 1 1 0-2 1 1 0 0 1 0 2Z" fill="#000"/>
</svg>
