<svg width="45" height="45" viewBox="0 0 45 45" fill="none" xmlns="http://www.w3.org/2000/svg">
<path fill-rule="evenodd" clip-rule="evenodd" d="M22.4998 40.1598C19.007 40.1598 15.5927 39.1241 12.6885 37.1836C9.78438 35.2431 7.52087 32.485 6.18423 29.2581C4.8476 26.0312 4.49787 22.4804 5.17929 19.0547C5.8607 15.629 7.54264 12.4823 10.0124 10.0125C12.4822 7.54275 15.6289 5.86081 19.0546 5.1794C22.4802 4.49799 26.0311 4.84771 29.258 6.18435C32.4849 7.52098 35.243 9.78449 37.1835 12.6886C39.124 15.5928 40.1597 19.0072 40.1597 22.5C40.154 27.1819 38.2916 31.6704 34.981 34.9811C31.6703 38.2917 27.1818 40.1541 22.4998 40.1598ZM24.462 35.2543V31.3299H20.5376V35.2543H24.462ZM29.5776 20.994C30.0872 19.9333 30.3508 18.7712 30.3487 17.5944C30.3476 16.2991 30.0259 15.0242 29.4124 13.8834C28.7988 12.7426 27.9125 11.7714 26.8324 11.0563C25.7146 10.3209 24.4296 9.87882 23.096 9.7708C21.7623 9.66278 20.4229 9.89232 19.2014 10.4383C17.8233 11.0515 16.6566 12.0575 15.8473 13.3303C15.0379 14.6031 14.6218 16.0863 14.651 17.5944C14.651 18.1148 14.8577 18.6139 15.2257 18.9819C15.5937 19.3499 16.0928 19.5566 16.6132 19.5566C17.1336 19.5566 17.6327 19.3499 18.0007 18.9819C18.3687 18.6139 18.5754 18.1148 18.5754 17.5944C18.5528 16.8575 18.7448 16.13 19.1279 15.5002C19.5111 14.8703 20.069 14.3654 20.7339 14.0468C21.3571 13.754 22.0449 13.6255 22.7318 13.6736C23.4187 13.7217 24.0819 13.9447 24.6583 14.3215C25.1754 14.6619 25.6047 15.1199 25.911 15.658C26.2173 16.196 26.3919 16.799 26.4206 17.4174C26.4493 18.0359 26.3313 18.6524 26.0761 19.2165C25.821 19.7807 25.436 20.2764 24.9526 20.6633C23.7481 21.5949 22.7422 22.7581 21.9944 24.0846C21.2466 25.411 20.772 26.8738 20.5985 28.3866H24.5857C24.9141 26.5353 25.9191 24.8722 27.4054 23.7204C28.3254 22.9867 29.0679 22.0548 29.5776 20.994Z" fill="#EEA46E"/>
<path fill-rule="evenodd" clip-rule="evenodd" d="M22.4998 0.915649C18.2309 0.915649 14.0578 2.18155 10.5082 4.55326C6.95872 6.92497 4.19221 10.296 2.55854 14.24C0.92488 18.184 0.497438 22.5239 1.33027 26.7108C2.16311 30.8978 4.21881 34.7437 7.23743 37.7624C10.2561 40.781 14.102 42.8367 18.289 43.6695C22.4759 44.5024 26.8158 44.0749 30.7598 42.4412C34.7038 40.8076 38.0748 38.0411 40.4465 34.4916C42.8182 30.942 44.0841 26.7689 44.0841 22.5C44.0774 16.7775 41.8012 11.2914 37.7548 7.245C33.7084 3.19862 28.2223 0.9224 22.4998 0.915649ZM22.4998 40.1598C19.007 40.1598 15.5927 39.1241 12.6885 37.1836C9.78438 35.2431 7.52087 32.485 6.18423 29.2581C4.8476 26.0312 4.49787 22.4804 5.17929 19.0547C5.8607 15.629 7.54264 12.4823 10.0124 10.0125C12.4822 7.54275 15.6289 5.86081 19.0546 5.1794C22.4802 4.49799 26.0311 4.84771 29.258 6.18435C32.4849 7.52098 35.243 9.78449 37.1835 12.6886C39.124 15.5928 40.1597 19.0072 40.1597 22.5C40.154 27.1819 38.2916 31.6704 34.981 34.9811C31.6703 38.2917 27.1818 40.1541 22.4998 40.1598Z" fill="#EEA46E"/>
<path d="M30.3487 17.5944C30.3508 18.7712 30.0872 19.9333 29.5776 20.994C29.0679 22.0548 28.3254 22.9867 27.4054 23.7204C25.9191 24.8722 24.9141 26.5353 24.5857 28.3866H20.5985C20.772 26.8738 21.2466 25.411 21.9944 24.0846C22.7422 22.7581 23.7481 21.5949 24.9526 20.6633C25.436 20.2764 25.821 19.7807 26.0761 19.2165C26.3313 18.6524 26.4493 18.0359 26.4206 17.4174C26.3919 16.799 26.2173 16.196 25.911 15.658C25.6047 15.1199 25.1754 14.6619 24.6583 14.3215C24.0819 13.9447 23.4187 13.7217 22.7318 13.6736C22.0449 13.6255 21.3571 13.754 20.7339 14.0468C20.069 14.3654 19.5111 14.8703 19.1279 15.5002C18.7448 16.13 18.5528 16.8575 18.5754 17.5944C18.5754 18.1148 18.3687 18.6139 18.0007 18.9819C17.6327 19.3499 17.1336 19.5566 16.6132 19.5566C16.0928 19.5566 15.5937 19.3499 15.2257 18.9819C14.8577 18.6139 14.651 18.1148 14.651 17.5944C14.6218 16.0863 15.0379 14.6031 15.8473 13.3303C16.6566 12.0575 17.8233 11.0515 19.2014 10.4383C20.4229 9.89232 21.7623 9.66278 23.096 9.7708C24.4296 9.87882 25.7146 10.3209 26.8324 11.0563C27.9125 11.7714 28.7988 12.7426 29.4124 13.8834C30.0259 15.0242 30.3476 16.2991 30.3487 17.5944Z" fill="#EEA46E"/>
<path d="M30.3487 17.5944C30.3508 18.7712 30.0872 19.9333 29.5776 20.994C29.0679 22.0548 28.3254 22.9867 27.4054 23.7204C25.9191 24.8722 24.9141 26.5353 24.5857 28.3866H20.5985C20.772 26.8738 21.2466 25.411 21.9944 24.0846C22.7422 22.7581 23.7481 21.5949 24.9526 20.6633C25.436 20.2764 25.821 19.7807 26.0761 19.2165C26.3313 18.6524 26.4493 18.0359 26.4206 17.4174C26.3919 16.799 26.2173 16.196 25.911 15.658C25.6047 15.1199 25.1754 14.6619 24.6583 14.3215C24.0819 13.9447 23.4187 13.7217 22.7318 13.6736C22.0449 13.6255 21.3571 13.754 20.7339 14.0468C20.069 14.3654 19.5111 14.8703 19.1279 15.5002C18.7448 16.13 18.5528 16.8575 18.5754 17.5944C18.5754 18.1148 18.3687 18.6139 18.0007 18.9819C17.6327 19.3499 17.1336 19.5566 16.6132 19.5566C16.0928 19.5566 15.5937 19.3499 15.2257 18.9819C14.8577 18.6139 14.651 18.1148 14.651 17.5944C14.6218 16.0863 15.0379 14.6031 15.8473 13.3303C16.6566 12.0575 17.8233 11.0515 19.2014 10.4383C20.4229 9.89232 21.7623 9.66278 23.096 9.7708C24.4296 9.87882 25.7146 10.3209 26.8324 11.0563C27.9125 11.7714 28.7988 12.7426 29.4124 13.8834C30.0259 15.0242 30.3476 16.2991 30.3487 17.5944Z" fill="#99450D"/>
<path d="M24.462 31.3299V35.2543H20.5376V31.3299H24.462Z" fill="#EEA46E"/>
<path d="M24.462 31.3299V35.2543H20.5376V31.3299H24.462Z" fill="#99450D"/>
</svg>
