<svg width="91" height="30" viewBox="0 0 91 30" fill="none" xmlns="http://www.w3.org/2000/svg">
<path fill-rule="evenodd" clip-rule="evenodd" d="M22.3149 26.0756C25.1173 26.0756 28.1576 26.9447 31.5239 29.6419C31.8611 29.9119 32.3101 29.5763 32.0152 29.2406C28.708 25.4634 25.649 24.7444 22.5983 24.1369C18.8659 23.3925 16.947 21.4931 15.6094 19.4081C15.3435 18.9938 15.2235 19.0669 15.1997 19.6003C15.1697 20.2519 15.2204 21.1153 15.3818 21.9647C15.2308 21.9703 15.0797 21.9694 14.9266 21.9694C9.58868 21.9694 5.26041 18.0544 5.26041 13.2253C5.26041 8.39719 9.58868 4.48313 14.9276 4.48313C20.2656 4.48313 24.5939 8.39719 24.5939 13.2253C24.5939 13.5694 24.5752 13.9097 24.5318 14.2425C23.8263 14.1272 22.437 14.1141 21.4625 14.19C21.0963 14.2191 21.148 14.3738 21.4252 14.4188C24.6208 14.9409 26.8149 16.7325 27.3176 19.9828C27.328 20.0578 27.4376 20.0794 27.4801 20.0147C28.8388 17.9644 29.5545 15.617 29.5501 13.2253C29.5501 5.92219 23.0028 0 14.9276 0C6.85144 0 0.304199 5.92125 0.304199 13.2253C0.304199 20.5303 6.85144 26.4525 14.9276 26.4525C17.069 26.4525 19.1959 26.0756 22.3149 26.0756ZM23.4032 21.2738C24.0539 21.7706 24.2514 22.3622 23.908 22.7794C23.7166 23.0081 23.4063 23.1347 23.0339 23.1347C22.6705 23.1348 22.3187 23.0193 22.0397 22.8084C21.448 22.3406 21.2742 21.5831 21.6601 21.1528C21.8111 20.9841 22.0563 20.8913 22.3501 20.8913C22.707 20.8913 23.0814 21.0272 23.4032 21.2738ZM26.4052 20.01C26.5004 20.5894 26.2987 20.8294 26.0949 20.8294C25.8725 20.8294 25.5942 20.595 25.2663 20.1309C24.9414 19.6734 24.8225 19.1484 24.9839 18.8831C25.0894 18.7078 25.3118 18.6309 25.5921 18.7275C26.1352 18.9122 26.3473 19.6641 26.4052 20.01ZM46.6749 16.9819L44.9887 15.1472C44.9491 15.1039 44.924 15.0514 44.9163 14.9956C44.9085 14.9399 44.9185 14.8833 44.945 14.8325C44.9715 14.7817 45.0134 14.7388 45.0659 14.7089C45.1183 14.6789 45.1791 14.6632 45.2411 14.6634H48.7676C48.9352 14.2116 49.0304 13.7288 49.0304 13.2263C49.0304 10.9294 47.1394 8.94844 44.5449 8.94844C41.9504 8.94844 40.0594 10.9294 40.0594 13.2263C40.0594 15.5231 41.9504 17.4769 44.5449 17.4769C45.3311 17.4769 46.0511 17.295 46.6759 16.9809L46.6749 16.9819ZM54.3032 20.0803C54.4863 20.2641 54.3363 20.5584 54.0601 20.5584H50.2118C50.1344 20.5585 50.058 20.5432 49.988 20.5136C49.9179 20.4839 49.8559 20.4407 49.8063 20.3869L49.1545 19.6772C47.782 20.4839 46.1808 20.9124 44.5449 20.9109C39.8597 20.9109 36.0487 17.4638 36.0487 13.2263C36.0487 8.98875 39.8597 5.54156 44.5449 5.54156C49.2301 5.54156 53.0411 8.98875 53.0411 13.2263C53.0411 14.7544 52.5445 16.1775 51.6911 17.3756L54.3032 20.0803ZM89.8573 5.89688H86.7156C86.6051 5.89712 86.4992 5.93701 86.4211 6.00781C86.343 6.07861 86.299 6.17456 86.2987 6.27469V20.1806C86.2987 20.3897 86.4849 20.5584 86.7156 20.5584H89.8573C90.088 20.5584 90.2752 20.3897 90.2752 20.1806V6.27375C90.2752 6.1733 90.2312 6.07696 90.1528 6.00593C90.0744 5.9349 89.9681 5.895 89.8573 5.895V5.89688ZM84.5711 5.89688H81.058C80.9688 5.89657 80.8817 5.92215 80.8097 5.9699C80.7377 6.01764 80.6844 6.08502 80.6576 6.16219L77.877 14.3803L74.8201 6.15281C74.7921 6.07776 74.7388 6.01257 74.6677 5.96647C74.5966 5.92038 74.5113 5.8957 74.4239 5.89594H71.9721C71.8846 5.89565 71.7991 5.92028 71.7278 5.96638C71.6566 6.01247 71.6031 6.07768 71.5749 6.15281L68.519 14.3803L65.7383 6.16219C65.7118 6.08485 65.6586 6.01726 65.5865 5.96934C65.5145 5.92142 65.4274 5.89569 65.338 5.89594H61.8239C61.7578 5.89604 61.6928 5.91027 61.634 5.93748C61.5752 5.96469 61.5244 6.0041 61.4856 6.0525C61.4468 6.10045 61.4213 6.15612 61.4112 6.21485C61.4012 6.27358 61.4068 6.33365 61.4276 6.39L66.5897 20.3034C66.6466 20.4572 66.807 20.5603 66.9859 20.5603H69.7749C69.9549 20.5603 70.1142 20.4572 70.1711 20.3044L73.198 12.1753L76.2239 20.3034C76.2807 20.4572 76.4411 20.5603 76.6201 20.5603H79.4101C79.5901 20.5603 79.7494 20.4572 79.8063 20.3034L84.9683 6.39C84.9892 6.3337 84.9949 6.27371 84.985 6.21501C84.9751 6.15631 84.9499 6.10059 84.9114 6.0525C84.8725 6.00403 84.8214 5.96458 84.7625 5.93737C84.7035 5.91016 84.6383 5.89597 84.5721 5.89594L84.5711 5.89688ZM60.0973 6.27469V20.1806C60.0973 20.3897 59.9111 20.5584 59.6794 20.5584H56.5387C56.428 20.5584 56.3219 20.5187 56.2435 20.4478C56.1652 20.377 56.121 20.2809 56.1208 20.1806V6.27375C56.1208 6.06469 56.307 5.895 56.5387 5.895H59.6794C59.9101 5.895 60.0973 6.06469 60.0973 6.27469Z" fill="#F4AB75" fill-opacity="0.6"/>
</svg>
