<svg width="45" height="45" viewBox="0 0 45 45" fill="none" xmlns="http://www.w3.org/2000/svg">
<rect width="45" height="45" rx="5" fill="#EEA46E"/>
<g clip-path="url(#clip0_527_394)">
<path d="M37.6801 21.408C37.4561 20.704 36.8481 20.096 35.9521 20.096H33.9041C33.7121 19.488 33.4561 18.88 33.1681 18.304L34.7361 16.736C35.0561 16.416 35.2161 16 35.2161 15.584C35.2161 15.168 35.0561 14.752 34.7361 14.432L31.5361 11.232C30.8961 10.592 29.8721 10.592 29.2001 11.232L27.6001 12.832C27.0881 12.576 26.5121 12.352 25.8081 12.128V10.016C25.8081 9.024 25.0081 8.224 24.0161 8.224H19.9201C18.9281 8.224 18.1281 9.024 18.1281 10.016V12.128C17.5201 12.32 16.9441 12.576 16.3681 12.864L14.7681 11.232C14.1281 10.592 13.1041 10.592 12.4641 11.232L9.26412 14.432C8.94412 14.752 8.78412 15.168 8.78412 15.584C8.78412 16 8.94412 16.416 9.26412 16.736L10.8001 18.272C10.5121 18.848 10.2561 19.456 10.0641 20.064H8.01612C7.02412 20.064 6.22412 20.864 6.22412 21.856V26.016C6.22412 27.008 7.02412 27.808 8.01612 27.808H10.0961C10.2881 28.416 10.5441 29.024 10.8321 29.632L9.26412 31.2C8.94412 31.52 8.78412 31.936 8.78412 32.352C8.78412 32.832 8.97612 33.248 9.29612 33.536L12.4641 36.704C13.0721 37.312 14.0961 37.312 14.7361 36.736L16.3041 35.168C16.8481 35.456 17.4881 35.744 18.1601 35.936V37.92C18.1601 38.912 18.9601 39.712 19.9521 39.712H24.1121C25.1041 39.712 25.9041 38.912 25.9041 37.92V35.936C26.6401 35.68 27.2481 35.456 27.7601 35.2L29.2961 36.736C29.6161 37.056 30.0321 37.216 30.4481 37.216C30.8641 37.216 31.2801 37.056 31.6001 36.736L34.8001 33.536C35.1201 33.216 35.2801 32.8 35.2801 32.384C35.2801 31.968 35.1201 31.552 34.8001 31.232L33.2321 29.664C33.5201 29.12 33.7761 28.512 33.9681 27.84H36.0161C37.0081 27.84 37.8081 27.04 37.8081 26.048V21.568L37.6801 21.408ZM36.2401 26.048C36.2401 26.176 36.1441 26.24 36.0481 26.24H33.0721L32.6241 26.688L32.5601 26.912C32.3681 27.84 31.9521 28.64 31.5681 29.376L31.4721 29.568V29.76C31.4721 30.016 31.5681 30.24 31.7281 30.432L33.6481 32.352C33.6801 32.384 33.6801 32.384 33.6481 32.416L30.4481 35.616C30.4481 35.616 30.4161 35.616 30.3841 35.616L28.2081 33.44H27.8881C27.7281 33.44 27.5681 33.472 27.3761 33.568C26.7361 33.92 25.9681 34.24 24.9441 34.56C24.7201 34.624 24.5601 34.752 24.4961 34.816L24.2721 35.04V37.92C24.2721 38.048 24.1761 38.112 24.0801 38.112H19.9201C19.7921 38.112 19.7281 38.016 19.7281 37.92V35.04L19.2801 34.592L19.0561 34.528C18.2881 34.368 17.5841 34.048 16.9441 33.728V33.664L16.4641 33.472C16.1441 33.344 15.7921 33.408 15.5681 33.664L13.6481 35.584C13.6161 35.584 13.5841 35.616 13.5521 35.616L10.3201 32.384C10.3201 32.384 10.3201 32.352 10.3521 32.352L12.5601 30.144V29.824C12.5601 29.632 12.4961 29.472 12.4001 29.312C11.9841 28.512 11.6641 27.712 11.4081 26.848L11.3441 26.656L10.9281 26.24H7.95212C7.82412 26.24 7.76012 26.144 7.76012 26.048V21.888C7.76012 21.76 7.85612 21.696 7.95212 21.696H10.9281L11.3441 21.28L11.4081 21.056C11.6001 20.384 11.8561 19.648 12.2081 18.976H12.3041L12.4961 18.496C12.6241 18.176 12.5601 17.824 12.3041 17.6L10.3201 15.616C10.3201 15.616 10.3201 15.584 10.3201 15.552L13.5201 12.352C13.5521 12.32 13.5521 12.32 13.5841 12.352L15.8241 14.624H16.1441C16.3361 14.624 16.5281 14.56 16.6561 14.464C17.2001 14.144 18.0321 13.76 18.9921 13.504L19.2161 13.44L19.6321 13.024V10.016C19.6321 9.888 19.7281 9.824 19.8241 9.824H23.9201C24.0481 9.824 24.1121 9.92 24.1121 10.016V13.024L24.5281 13.44L24.7201 13.504C25.7761 13.824 26.5441 14.144 27.1841 14.496L27.3761 14.592H27.6001C27.8561 14.592 28.1121 14.496 28.2721 14.336L30.2561 12.352C30.2881 12.32 30.2881 12.32 30.3201 12.352L33.5201 15.552C33.5201 15.552 33.5201 15.584 33.5201 15.616L31.3121 17.824V18.144C31.3121 18.304 31.3441 18.464 31.4401 18.624L31.4721 18.656C31.7921 19.2 32.2081 20.032 32.4641 21.056L32.5281 21.28L32.9441 21.696H35.9201C36.0161 21.696 36.1121 21.856 36.1441 21.952L36.1761 22.208L36.2081 22.24V26.048H36.2401Z" fill="#98440D"/>
<path d="M22.4481 17.6H22.0321C20.2721 17.6 18.6721 18.272 17.4561 19.456C16.1441 20.736 15.4401 22.56 15.5681 24.416C15.7921 27.584 18.4161 30.24 21.5841 30.432C21.7441 30.432 21.8721 30.432 22.0321 30.432C23.7281 30.432 25.3601 29.76 26.5441 28.544C27.8241 27.2 28.5281 25.408 28.4321 23.584C28.2721 20.448 25.6161 17.792 22.4481 17.6ZM25.4241 27.456C24.4321 28.448 23.0881 28.96 21.7121 28.864C19.3441 28.704 17.3281 26.72 17.1681 24.32C17.0721 22.912 17.5841 21.568 18.5761 20.608C19.5041 19.68 20.6881 19.2 22.0321 19.2H22.3841C24.7521 19.36 26.7361 21.344 26.8961 23.712C26.9281 25.056 26.4161 26.432 25.4241 27.456Z" fill="#98440D"/>
</g>
<defs>
<clipPath id="clip0_527_394">
<rect width="32" height="32" fill="white" transform="translate(6 8)"/>
</clipPath>
</defs>
</svg>
