<svg width="32" height="20" viewBox="0 0 32 20" fill="none" xmlns="http://www.w3.org/2000/svg">
<g clip-path="url(#clip0_527_303)">
<path d="M15.9998 12.963C17.683 12.963 19.0474 11.6365 19.0474 10.0001C19.0474 8.36363 17.683 7.03711 15.9998 7.03711C14.3166 7.03711 12.9521 8.36363 12.9521 10.0001C12.9521 11.6365 14.3166 12.963 15.9998 12.963Z" stroke="#F4AB75" stroke-width="1.5" stroke-linecap="round" stroke-linejoin="round"/>
<path d="M28.1904 18.8889C30.1104 16.4148 31.238 13.3333 31.238 9.99997C31.238 6.66664 30.1104 3.58516 28.1904 1.11108" stroke="#F4AB75" stroke-width="1.5" stroke-linecap="round" stroke-linejoin="round"/>
<path d="M3.80934 1.11108C1.88934 3.58516 0.761719 6.66664 0.761719 9.99997C0.761719 13.3333 1.88934 16.4148 3.80934 18.8889" stroke="#F4AB75" stroke-width="1.5" stroke-linecap="round" stroke-linejoin="round"/>
<path d="M23.3145 15.3334C24.4573 13.8519 25.1432 12.0001 25.1432 10.0001C25.1432 8.00005 24.4573 6.14823 23.3145 4.66675" stroke="#F4AB75" stroke-width="1.5" stroke-linecap="round" stroke-linejoin="round"/>
<path d="M8.68552 4.66675C7.54266 6.14823 6.85693 8.00005 6.85693 10.0001C6.85693 12.0001 7.54266 13.8519 8.68552 15.3334" stroke="#F4AB75" stroke-width="1.5" stroke-linecap="round" stroke-linejoin="round"/>
</g>
<defs>
<clipPath id="clip0_527_303">
<rect width="32" height="20" fill="white"/>
</clipPath>
</defs>
</svg>
