<svg width="45" height="45" viewBox="0 0 45 45" fill="none" xmlns="http://www.w3.org/2000/svg">
<g clip-path="url(#clip0_527_371)">
<path d="M22.5 -0.15625C10.0391 -0.15625 -0.15625 10.0391 -0.15625 22.5C-0.15625 34.9609 10.0391 45.1563 22.5 45.1563C34.9609 45.1563 45.1562 34.9609 45.1562 22.5C45.1562 10.0391 34.9609 -0.15625 22.5 -0.15625Z" fill="#F4AB75"/>
<path d="M23.8594 32.9219C13.6641 32.9219 7.88672 26.0117 7.66016 14.3438H12.7578C12.8711 22.8398 16.7227 26.4648 19.668 27.1445V14.3438H24.4258V21.707C27.3711 21.3672 30.4297 18.082 31.4492 14.3438H36.207C35.4141 18.875 32.0156 22.2734 29.6367 23.6328C32.0156 24.7656 35.8672 27.7109 37.2266 32.9219H31.9023C30.7695 29.4102 27.9375 26.6914 24.1992 26.2383V32.9219H23.8594Z" fill="#95430D"/>
</g>
<defs>
<clipPath id="clip0_527_371">
<rect width="45" height="45" fill="white"/>
</clipPath>
</defs>
</svg>
