<svg width="80" height="80" fill="none" xmlns="http://www.w3.org/2000/svg">
    <path fill="#1A1A1D" d="M0 0h80v80H0z"/>
    <g filter="url(#a)">
        <mask id="b" maskUnits="userSpaceOnUse" x="29" y="26" width="20" height="29" fill="#000">
            <path fill="#fff" d="M29 26h20v29H29z"/>
            <path d="M32.612 27.8h14.112l-7.595 9.648c1.08.144 2.088.396 3.024.756a9.706 9.706 0 0 1 2.628 1.44c.816.6 1.464 1.392 1.944 2.376s.72 2.1.72 3.348c0 2.472-.745 4.428-2.233 5.868-1.464 1.416-3.456 2.124-5.976 2.124-1.151 0-2.231-.156-3.24-.468-1.008-.312-1.824-.684-2.448-1.116-.6-.432-1.128-.864-1.584-1.296-.455-.432-.78-.804-.971-1.116l-.252-.468 1.008-.432c.072.096.168.24.287.432.12.168.408.468.864.9s.949.816 1.477 1.152c.527.336 1.223.648 2.087.936a9.676 9.676 0 0 0 2.773.396c2.28 0 4.032-.612 5.255-1.836 1.248-1.248 1.873-2.94 1.873-5.076 0-1.992-.684-3.54-2.053-4.644-1.367-1.104-3.143-1.836-5.328-2.196l-1.8-.288 7.309-9.36h-11.88V27.8Z"/>
        </mask>
        <path d="M32.612 27.8h14.112l-7.595 9.648c1.08.144 2.088.396 3.024.756a9.706 9.706 0 0 1 2.628 1.44c.816.6 1.464 1.392 1.944 2.376s.72 2.1.72 3.348c0 2.472-.745 4.428-2.233 5.868-1.464 1.416-3.456 2.124-5.976 2.124-1.151 0-2.231-.156-3.24-.468-1.008-.312-1.824-.684-2.448-1.116-.6-.432-1.128-.864-1.584-1.296-.455-.432-.78-.804-.971-1.116l-.252-.468 1.008-.432c.072.096.168.24.287.432.12.168.408.468.864.9s.949.816 1.477 1.152c.527.336 1.223.648 2.087.936a9.676 9.676 0 0 0 2.773.396c2.28 0 4.032-.612 5.255-1.836 1.248-1.248 1.873-2.94 1.873-5.076 0-1.992-.684-3.54-2.053-4.644-1.367-1.104-3.143-1.836-5.328-2.196l-1.8-.288 7.309-9.36h-11.88V27.8Z" fill="#F8B415"/>
        <path d="M32.612 27.8v-1h-1v1h1Zm14.112 0 .786.619 1.275-1.619h-2.06v1Zm-7.595 9.648-.786-.619-1.085 1.378 1.738.232.133-.991Zm3.024.756-.36.933.011.004.01.004.339-.941Zm2.628 1.44-.608.794.008.006.007.006.593-.806Zm1.944 2.376.898-.438-.898.438Zm-1.513 9.216.696.719-.696-.719Zm-11.664.54-.584.811.008.006.007.005.57-.822Zm-1.584-1.296-.687.726.688-.726Zm-.971-1.116-.881.474.014.026.015.024.852-.524Zm-.252-.468-.395-.92-1.004.431.518.963.88-.474Zm1.008-.432.8-.6-.472-.629-.722.31.393.919Zm.287.432-.848.53.017.026.018.025.813-.581Zm.864.9-.687.726.688-.726Zm1.477 1.152.536-.844-.536.844Zm2.087.936-.316.949.016.005.015.005.285-.959Zm8.029-1.44.707.707-.708-.707Zm-.18-9.72.627-.778-.627.778Zm-5.329-2.196.163-.987h-.005l-.158.987Zm-1.8-.288-.788-.615-1.042 1.335 1.672.267.158-.987Zm7.309-9.36.788.615 1.26-1.615h-2.048v1Zm-11.88 0h-1v1h1v-1Zm0-.08h14.111v-2H32.614v2Zm13.326-1.619-7.596 9.648 1.571 1.238 7.596-9.648-1.571-1.238ZM38.996 38.44c1.01.135 1.94.369 2.797.698l.718-1.866c-1.015-.39-2.1-.66-3.25-.814l-.265 1.982Zm2.819.706c.836.3 1.621.73 2.358 1.293l1.215-1.588a10.705 10.705 0 0 0-2.898-1.587l-.675 1.882Zm2.373 1.305c.675.496 1.223 1.158 1.638 2.008l1.797-.876c-.545-1.118-1.293-2.04-2.25-2.744l-1.185 1.612Zm1.638 2.008c.404.83.618 1.793.618 2.91h2c0-1.379-.265-2.648-.82-3.786l-1.798.876Zm.618 2.91c0 2.258-.67 3.934-1.927 5.15l1.39 1.437c1.72-1.665 2.538-3.9 2.538-6.587h-2Zm-1.927 5.15c-1.235 1.194-2.955 1.842-5.28 1.842v2c2.714 0 4.978-.768 6.67-2.405l-1.39-1.438Zm-5.28 1.842c-1.061 0-2.041-.143-2.945-.423l-.591 1.91c1.112.344 2.292.513 3.535.513v-2Zm-2.945-.423c-.945-.293-1.66-.627-2.174-.983l-1.139 1.644c.734.508 1.651.918 2.722 1.25l.591-1.911Zm-2.16-.972c-.569-.41-1.061-.815-1.48-1.211l-1.375 1.452c.493.468 1.057.928 1.687 1.381l1.169-1.623Zm-1.48-1.211c-.43-.408-.683-.71-.808-.914l-1.703 1.048c.259.42.655.862 1.136 1.318l1.375-1.452Zm-.78-.864-.251-.468-1.761.948.252.468 1.76-.948Zm-.738.925 1.008-.432-.788-1.838-1.008.432.788 1.838Zm-.186-.751c.047.062.125.177.24.362l1.697-1.06a7.52 7.52 0 0 0-.337-.502l-1.6 1.2Zm.275.413c.185.26.546.625.99 1.045l1.375-1.452c-.468-.444-.683-.679-.738-.755l-1.627 1.162Zm.99 1.045c.502.476 1.044.9 1.627 1.27l1.073-1.688a8.764 8.764 0 0 1-1.325-1.034l-1.375 1.452Zm1.627 1.27c.62.395 1.398.737 2.308 1.04l.633-1.897c-.819-.272-1.432-.553-1.868-.83l-1.073 1.687Zm2.34 1.05c.983.293 2.004.438 3.056.438v-2a8.677 8.677 0 0 1-2.487-.355l-.57 1.918Zm3.056.438c2.458 0 4.498-.663 5.964-2.129l-1.415-1.414c-.982.982-2.446 1.543-4.548 1.543v2Zm5.964-2.129c1.473-1.474 2.164-3.441 2.164-5.783h-2c0 1.93-.556 3.347-1.579 4.369L45.2 51.15Zm2.164-5.783c0-2.249-.787-4.102-2.423-5.422l-1.257 1.556c1.1.887 1.68 2.13 1.68 3.866h2Zm-2.423-5.422c-1.534-1.237-3.483-2.024-5.794-2.405l-.325 1.974c2.057.339 3.66 1.016 4.862 1.987l1.257-1.556Zm-5.799-2.405-1.8-.288-.316 1.974 1.8.288.316-1.974Zm-1.17 1.314 7.309-9.36-1.577-1.23-7.308 9.36 1.577 1.23Zm6.52-10.975h-11.88v2h11.88v-2Zm-10.88 1V27.8h-2v1.08h2Z" fill="#F8B415" mask="url(#b)"/>
    </g>
    <defs>
        <filter id="a" x="26.741" y="27.8" width="24.704" height="33.56" filterUnits="userSpaceOnUse" color-interpolation-filters="sRGB">
            <feFlood flood-opacity="0" result="BackgroundImageFix"/>
            <feColorMatrix in="SourceAlpha" values="0 0 0 0 0 0 0 0 0 0 0 0 0 0 0 0 0 0 127 0" result="hardAlpha"/>
            <feOffset dy="4"/>
            <feGaussianBlur stdDeviation="2"/>
            <feComposite in2="hardAlpha" operator="out"/>
            <feColorMatrix values="0 0 0 0 0 0 0 0 0 0 0 0 0 0 0 0 0 0 0.25 0"/>
            <feBlend in2="BackgroundImageFix" result="effect1_dropShadow_1154_254"/>
            <feColorMatrix in="SourceAlpha" values="0 0 0 0 0 0 0 0 0 0 0 0 0 0 0 0 0 0 127 0" result="hardAlpha"/>
            <feOffset dy="4"/>
            <feGaussianBlur stdDeviation="2"/>
            <feComposite in2="hardAlpha" operator="out"/>
            <feColorMatrix values="0 0 0 0 0 0 0 0 0 0 0 0 0 0 0 0 0 0 0.25 0"/>
            <feBlend in2="effect1_dropShadow_1154_254" result="effect2_dropShadow_1154_254"/>
            <feBlend in="SourceGraphic" in2="effect2_dropShadow_1154_254" result="shape"/>
        </filter>
    </defs>
</svg>
