<svg width="32" height="32" viewBox="0 0 32 32" fill="none" xmlns="http://www.w3.org/2000/svg">
<path d="M30.3534 22.3737H7.98773C7.56404 22.3737 7.15769 22.2053 6.8581 21.9056C6.5585 21.6059 6.39018 21.1994 6.39018 20.7756C6.39018 20.3517 6.5585 19.9452 6.8581 19.6455C7.15769 19.3458 7.56404 19.1774 7.98773 19.1774H24.6661C25.7343 19.1775 26.7719 18.8206 27.6142 18.1633C28.4564 17.5061 29.055 16.5862 29.315 15.5497L31.9509 5.17791C32.0108 4.94204 32.016 4.69562 31.9661 4.45743C31.9163 4.21925 31.8127 3.99559 31.6634 3.80353C31.508 3.60653 31.3084 3.4489 31.0809 3.34339C30.8533 3.23789 30.6041 3.18748 30.3534 3.19624H7.60432C7.27473 2.26366 6.66485 1.45589 5.85831 0.883662C5.05176 0.311439 4.08803 0.00277995 3.09924 0H1.59755C1.17385 0 0.767508 0.168373 0.46791 0.468079C0.168312 0.767784 0 1.17427 0 1.59812C0 2.02197 0.168312 2.42846 0.46791 2.72816C0.767508 3.02787 1.17385 3.19624 1.59755 3.19624H3.09924C3.46417 3.1856 3.82174 3.30033 4.11241 3.52132C4.40308 3.74231 4.60932 4.05623 4.69679 4.41081L4.79264 5.17791L7.55639 15.9812C6.28531 16.0384 5.089 16.5984 4.23065 17.538C3.37231 18.4776 2.92222 19.7198 2.97942 20.9913C3.03662 22.2629 3.59642 23.4596 4.53566 24.3182C5.4749 25.1769 6.71664 25.6271 7.98773 25.5699H8.27529C8.01255 26.2941 7.92812 27.0709 8.02916 27.8346C8.13019 28.5984 8.41371 29.3265 8.85571 29.9573C9.2977 30.5882 9.88516 31.1032 10.5683 31.4588C11.2515 31.8144 12.0103 32 12.7804 32C13.5505 32 14.3092 31.8144 14.9924 31.4588C15.6756 31.1032 16.263 30.5882 16.705 29.9573C17.147 29.3265 17.4305 28.5984 17.5316 27.8346C17.6326 27.0709 17.5482 26.2941 17.2854 25.5699H21.0557C20.7929 26.2941 20.7085 27.0709 20.8095 27.8346C20.9106 28.5984 21.1941 29.3265 21.6361 29.9573C22.0781 30.5882 22.6655 31.1032 23.3487 31.4588C24.0319 31.8144 24.7906 32 25.5607 32C26.3308 32 27.0896 31.8144 27.7728 31.4588C28.4559 31.1032 29.0434 30.5882 29.4854 29.9573C29.9274 29.3265 30.2109 28.5984 30.312 27.8346C30.413 27.0709 30.3286 26.2941 30.0658 25.5699H30.3534C30.7771 25.5699 31.1834 25.4016 31.483 25.1018C31.7826 24.8021 31.9509 24.3957 31.9509 23.9718C31.9509 23.548 31.7826 23.1415 31.483 22.8418C31.1834 22.5421 30.7771 22.3737 30.3534 22.3737ZM28.3085 6.39248L26.2157 14.7666C26.1283 15.1212 25.922 15.4351 25.6314 15.6561C25.3407 15.8771 24.9831 15.9918 24.6182 15.9812H10.8314L8.43504 6.39248H28.3085ZM12.7804 28.7662C12.4644 28.7662 12.1555 28.6724 11.8928 28.4968C11.6301 28.3212 11.4253 28.0716 11.3044 27.7796C11.1835 27.4876 11.1519 27.1663 11.2135 26.8563C11.2752 26.5463 11.4273 26.2615 11.6507 26.038C11.8742 25.8145 12.1588 25.6623 12.4687 25.6006C12.7786 25.539 13.0998 25.5706 13.3917 25.6916C13.6836 25.8125 13.9331 26.0174 14.1087 26.2802C14.2842 26.543 14.3779 26.852 14.3779 27.168C14.3779 27.5919 14.2096 27.9984 13.91 28.2981C13.6104 28.5978 13.2041 28.7662 12.7804 28.7662ZM25.5607 28.7662C25.2448 28.7662 24.9359 28.6724 24.6732 28.4968C24.4105 28.3212 24.2057 28.0716 24.0848 27.7796C23.9639 27.4876 23.9322 27.1663 23.9939 26.8563C24.0555 26.5463 24.2077 26.2615 24.4311 26.038C24.6545 25.8145 24.9392 25.6623 25.2491 25.6006C25.559 25.539 25.8802 25.5706 26.1721 25.6916C26.464 25.8125 26.7135 26.0174 26.8891 26.2802C27.0646 26.543 27.1583 26.852 27.1583 27.168C27.1583 27.5919 26.99 27.9984 26.6904 28.2981C26.3908 28.5978 25.9844 28.7662 25.5607 28.7662Z" fill="#F4AB75"/>
</svg>
