<svg width="16" height="20" viewBox="0 0 16 20" fill="none" xmlns="http://www.w3.org/2000/svg">
<path d="M11.0179 6.2498L15.1343 2.13343C15.3091 1.95861 15.4281 1.73589 15.4764 1.49342C15.5246 1.25096 15.4998 0.999636 15.4052 0.771236C15.3106 0.542837 15.1504 0.347617 14.9449 0.210263C14.7393 0.0729091 14.4977 -0.000411355 14.2505 -0.000427068H1.75C1.58582 -0.000514699 1.42324 0.0317577 1.27154 0.094545C1.11985 0.157332 0.982012 0.249403 0.865921 0.365494C0.749831 0.481585 0.65776 0.619418 0.594972 0.771115C0.532185 0.922812 0.499913 1.0854 0.5 1.24957V18.7502C0.5 19.0817 0.631696 19.3997 0.866117 19.6341C1.10054 19.8685 1.41848 20.0002 1.75 20.0002C2.08152 20.0002 2.39946 19.8685 2.63388 19.6341C2.8683 19.3997 3 19.0817 3 18.7502V12.4999H14.2505C14.4977 12.4999 14.7393 12.4266 14.9449 12.2892C15.1504 12.1519 15.3106 11.9567 15.4052 11.7283C15.4998 11.4999 15.5246 11.2485 15.4764 11.0061C15.4281 10.7636 15.3091 10.5409 15.1343 10.3661L11.0179 6.2498ZM3 9.99993V2.49966H11.2328L8.36648 5.36597C8.25037 5.48201 8.15827 5.61979 8.09543 5.77144C8.03259 5.92309 8.00024 6.08564 8.00024 6.24979C8.00024 6.41395 8.03259 6.57649 8.09543 6.72814C8.15827 6.87979 8.25037 7.01757 8.36648 7.13361L11.2328 9.99993H3Z" fill="#f8b415"/>
</svg>


