<svg width="28" height="20" viewBox="0 0 28 20" fill="none" xmlns="http://www.w3.org/2000/svg">
    <path d="M27.44 1.90857H27.0704C27.0256 1.63429 26.8072 1.42286 26.5272 1.42286H26.3424C25.872 0.794288 25.144 0.422859 24.3656 0.422859C24.0576 0.422859 23.8056 0.680002 23.8056 0.994288V1.42286H3.24239C2.99599 1.42286 2.77759 1.58857 2.70479 1.83429L2.62639 2.09714C2.37439 2.12 2.04959 2.12572 1.82559 2.07429C1.55119 2.00572 1.27119 2.10857 1.09759 2.32572C0.92399 2.54286 0.89039 2.83429 1.00799 3.09143L1.82559 4.86857L1.44479 6.18857C1.38879 6.38286 1.43919 6.59429 1.57359 6.74286C3.04639 8.32572 3.02399 10.4686 1.49519 13.1029C0.50959 14.8057 0.13999 16.9143 0.0055902 18.3886C-0.0392098 18.84 0.11199 19.2857 0.40879 19.6229C0.70559 19.9543 1.13119 20.1486 1.57359 20.1486H6.44559C6.86559 20.1486 7.27999 19.9771 7.57679 19.6686C7.86239 19.3771 8.02479 18.9886 8.01919 18.5829C8.01919 14.08 9.09439 12.7429 9.51999 12.3886C10.1248 12.7086 10.836 12.9029 11.6032 12.9029C13.804 12.9029 15.5904 11.3543 15.5904 9.45143C15.5904 8.86286 15.4224 8.29714 15.1088 7.8H25.816C26.0568 7.8 26.2696 7.64 26.348 7.40572L27.0592 5.21143C27.0704 5.18286 27.0648 5.15429 27.0704 5.12C27.076 5.09143 27.0872 5.06286 27.0872 5.02857V5.02286H27.44C27.748 5.02286 28 4.76572 28 4.45143V2.47429C28 2.16572 27.748 1.90857 27.44 1.90857ZM11.6032 11.76C10.0184 11.76 8.73039 10.7257 8.73039 9.45143C8.73039 8.82857 9.04399 8.23429 9.60399 7.8H10.3264C10.3264 8.80572 10.6736 10.1486 12.0008 10.6343C12.0624 10.6571 12.1296 10.6686 12.1912 10.6686C12.4208 10.6686 12.6392 10.5257 12.7176 10.2914C12.824 9.99429 12.6728 9.66857 12.3816 9.56C11.5752 9.26857 11.4464 8.36572 11.452 7.80572H13.608C14.1624 8.24 14.4816 8.83429 14.4816 9.45714C14.4704 10.7257 13.1824 11.76 11.6032 11.76ZM13.8096 6.65714C13.7872 6.65714 13.7648 6.65714 13.7424 6.65714H9.41919C9.30159 6.65714 9.18959 6.69714 9.09999 6.76C8.15359 7.41714 7.61039 8.4 7.61039 9.45143C7.61039 10.3143 7.97999 11.1029 8.59039 11.7086C7.86239 12.4686 6.89919 14.2857 6.89919 18.5829C6.89919 18.7143 6.83759 18.8057 6.78159 18.8571C6.69199 18.9486 6.56879 19 6.44559 19H1.57359C1.44479 19 1.32159 18.9486 1.23199 18.8457C1.15359 18.7543 1.10879 18.6286 1.11999 18.4971C1.22079 17.3886 1.53439 15.2857 2.46399 13.6857C4.17199 10.7314 4.22239 8.15429 2.60959 6.21143L3.66239 2.57143H25.9672V4.46286V4.46857H5.55519C5.24719 4.46857 4.99519 4.72572 4.99519 5.04C4.99519 5.35429 5.24719 5.61143 5.55519 5.61143H25.7488L25.4072 6.66286L13.8096 6.65714Z" fill="currentColor"/>
</svg>
