<svg width="79" height="29" viewBox="0 0 79 29" fill="none" xmlns="http://www.w3.org/2000/svg">
<path d="M40.802 9.52487C40.7536 13.4463 43.9691 15.6346 46.3771 16.9301C48.8643 18.2607 49.687 19.1185 49.687 20.3089C49.6717 22.1296 47.708 22.9348 45.8704 22.9699C42.6701 23.0223 40.802 22.007 39.3286 21.2542L38.1723 27.2239C39.661 27.9767 42.4014 28.6419 45.2527 28.677C51.9524 28.677 56.3243 25.0181 56.3561 19.3636C56.388 12.1859 47.359 11.7832 47.4227 8.56202C47.438 7.58166 48.2773 6.54877 50.1314 6.28618C51.0496 6.14612 53.5684 6.05859 56.4186 7.51163L57.5443 1.7345C55.9919 1.12178 54.0117 0.52655 51.5564 0.52655C45.268 0.52655 40.8339 4.22041 40.802 9.52487ZM68.2987 1.01673C67.0787 1.01673 66.0497 1.80453 65.59 3.01247L56.0237 28.2393H62.7069L64.0377 24.1778H72.2109L72.9863 28.2393H78.8787L73.7313 1.01673H68.2987ZM69.2334 8.38695L71.1653 18.6107H65.8753L69.2334 8.38695ZM32.692 1.01673L27.4176 28.2568H33.7851L39.0599 1.01673H32.692ZM23.2519 1.01673L16.6153 19.556L13.9385 3.80025C13.6217 2.04961 12.3863 1.01673 10.9923 1.01673H0.15842L0 1.82204C2.23329 2.36474 4.7517 3.22255 6.28814 4.13289C7.22261 4.69308 7.49194 5.18327 7.80866 6.53126L12.8931 28.2568H19.6247L29.9519 1.01673H23.2519Z" fill="#F4AB75" fill-opacity="0.6"/>
</svg>
