<svg width="80" height="30" viewBox="0 0 80 30" fill="none" xmlns="http://www.w3.org/2000/svg">
<path fill-rule="evenodd" clip-rule="evenodd" d="M14.8047 0.916748C19.428 0.916748 23.5472 3.00746 26.2099 6.26618C24.5138 8.77603 23.5273 11.7765 23.5273 15.0001C23.5273 18.2238 24.5138 21.2241 26.2103 23.7335C23.5472 26.9927 19.428 29.0834 14.8047 29.0834C6.77581 29.0834 0.26709 22.7781 0.26709 15.0001C0.26709 7.22208 6.77581 0.916748 14.8047 0.916748ZM13.3283 6.3936H11.6814V9.00428C11.446 9.0112 11.1003 9.01473 10.6441 9.01473L8.377 9.00428V10.7033H9.56395C10.1058 10.7033 10.423 10.9382 10.5157 11.4078V14.3811C10.5871 14.3811 10.6441 14.3846 10.6869 14.3915H10.5157V18.556C10.4587 18.9081 10.252 19.0844 9.8955 19.0844H8.70864L8.377 20.9803L10.7075 20.9811C10.8179 20.9819 10.95 20.9832 11.1041 20.9851C11.3607 20.9886 11.5531 20.9904 11.6814 20.9904V23.632H13.3286V21.0214C13.5425 21.0265 13.8255 21.0296 14.1775 21.031L14.6332 21.0319V23.632H16.28V20.9904C16.8647 20.9627 17.3833 20.9112 17.8358 20.835C18.2886 20.7587 18.7218 20.6399 19.1352 20.4774C19.5486 20.3153 19.8943 20.113 20.1722 19.8714C20.4504 19.6298 20.6801 19.3224 20.8623 18.9492C21.0437 18.5763 21.1597 18.1446 21.2095 17.6541C21.3025 16.6944 21.142 15.9554 20.7286 15.4373C20.3152 14.9194 19.6913 14.5637 18.8571 14.3704C19.9194 13.8454 20.3863 12.9545 20.2581 11.6973C20.2153 11.2415 20.0852 10.8464 19.8677 10.5115C19.65 10.1766 19.3562 9.90731 18.9852 9.7036C18.6147 9.49965 18.2114 9.34438 17.7767 9.23734C17.342 9.13029 16.8428 9.05258 16.2796 9.00428V6.3936H14.6329V8.93174C14.3477 8.93174 13.9129 8.93864 13.3283 8.95246V6.3936ZM14.558 15.5721C14.7362 15.5721 14.9823 15.5824 15.2961 15.6033C15.6096 15.6238 15.8734 15.6547 16.0874 15.6961C16.3012 15.7376 16.5345 15.8015 16.7878 15.8879C17.0409 15.9741 17.2459 16.0795 17.4028 16.2038C17.5597 16.3284 17.6914 16.4869 17.7984 16.6804C17.9055 16.8738 17.9591 17.0947 17.9591 17.3435C17.9591 17.537 17.9251 17.7129 17.8574 17.8719C17.7894 18.0308 17.7023 18.169 17.5953 18.2865C17.4883 18.4036 17.3474 18.5074 17.1729 18.597C16.9983 18.687 16.8289 18.7594 16.665 18.8146C16.501 18.8701 16.3031 18.9181 16.0716 18.9597C15.8396 19.0012 15.6365 19.0304 15.4616 19.0478C15.2871 19.0651 15.0787 19.0789 14.8361 19.0893C14.5938 19.0995 14.4047 19.1047 14.2694 19.1047C14.1339 19.1047 13.9628 19.1029 13.756 19.0995C13.5491 19.0963 13.4174 19.0945 13.3602 19.0945V15.5928C13.4172 15.5928 13.5865 15.5894 13.8682 15.5824C14.15 15.5754 14.3797 15.5721 14.558 15.5721ZM14.9806 10.8272C15.2409 10.8479 15.4601 10.8756 15.6383 10.9101C15.8165 10.9446 16.0126 11.0016 16.2263 11.081C16.4403 11.1604 16.6114 11.2571 16.7396 11.371C16.868 11.485 16.9767 11.6301 17.0656 11.8062C17.1549 11.9823 17.1994 12.1843 17.1994 12.4122C17.1994 12.6056 17.1674 12.7817 17.1033 12.9406C17.0393 13.0995 16.9429 13.2325 16.8147 13.3395C16.6865 13.4466 16.5543 13.5399 16.4188 13.6193C16.2836 13.6986 16.1105 13.7626 15.9002 13.8109C15.69 13.8593 15.5064 13.8973 15.3498 13.9249C15.1929 13.9525 14.9969 13.9715 14.7615 13.9819C14.5261 13.9921 14.348 13.9991 14.2268 14.0026C14.1055 14.006 13.9398 14.006 13.7294 14.0026C13.519 13.9991 13.3962 13.9974 13.3605 13.9974V10.8169C13.4103 10.8169 13.5511 10.8152 13.7828 10.8117C14.0145 10.8082 14.2071 10.8048 14.3602 10.8013C14.5136 10.7979 14.7203 10.8065 14.9806 10.8272Z" fill="#F4AB75" fill-opacity="0.6"/>
<path fill-rule="evenodd" clip-rule="evenodd" d="M40.0014 0.916748C44.6248 0.916748 48.744 3.00746 51.4067 6.26618C49.7106 8.77603 48.724 11.7765 48.724 15.0001C48.724 18.2238 49.7106 21.2241 51.407 23.7335C48.744 26.9927 44.6248 29.0834 40.0014 29.0834C31.9725 29.0834 25.4639 22.7781 25.4639 15.0001C25.4639 7.22208 31.9725 0.916748 40.0014 0.916748ZM44.8923 15.3647L40.0239 17.6084L35.1556 15.3647L40.0239 23.6066L44.8923 15.3647ZM40.0239 12.8252L36.0572 14.6483L40.0239 16.4684L43.9972 14.6453L40.0239 12.8252ZM40.0239 6.3936L35.6808 13.7013L40.0239 11.7054L44.3621 13.6929L40.0239 6.3936Z" fill="#F4AB75" fill-opacity="0.6"/>
<path fill-rule="evenodd" clip-rule="evenodd" d="M65.2081 0.916748C73.237 0.916748 79.7458 7.22208 79.7458 15.0001C79.7458 22.7781 73.237 29.0834 65.2081 29.0834C57.1792 29.0834 50.6704 22.7781 50.6704 15.0001C50.6704 7.22208 57.1792 0.916748 65.2081 0.916748ZM70.5674 8.74083H59.4607V11.6308H63.5223V13.0262C60.3283 13.2055 57.9393 13.9251 57.9393 14.7859C57.9393 15.6469 60.3283 16.3665 63.5223 16.5455V21.5321H66.5056V16.5522C69.7591 16.3849 72.2071 15.6575 72.2071 14.7859C72.2071 13.9144 69.7591 13.1873 66.5059 13.0195L66.5056 11.6308H70.5674V8.74083ZM66.506 13.3354C69.3072 13.4554 71.3956 13.9196 71.3956 14.4747C71.3956 15.121 68.5649 15.6445 65.0731 15.6445C61.5814 15.6445 58.7507 15.121 58.7507 14.4747C58.7507 13.9276 60.7803 13.4683 63.5223 13.3404L63.5225 15.0194C64.0169 15.0463 64.5363 15.0604 65.0731 15.0604C65.5673 15.0604 66.0472 15.0481 66.506 15.0259V13.3354Z" fill="#F4AB75" fill-opacity="0.6"/>
</svg>
