<svg width="130" height="25" viewBox="0 0 130 25" fill="none" xmlns="http://www.w3.org/2000/svg">
<path fill-rule="evenodd" clip-rule="evenodd" d="M18.383 2.65158C18.2365 2.77712 18.0933 2.90643 17.9531 3.03918C15.559 5.30937 14.0436 8.65119 14.0436 12.381C14.0436 16.1104 15.559 19.4521 17.9531 21.7224C18.0933 21.8551 18.2365 21.984 18.383 22.11C18.5294 21.984 18.6727 21.8551 18.8129 21.7224C21.2069 19.4521 22.7224 16.1104 22.7224 12.381C22.7224 8.65119 21.2069 5.30937 18.8129 3.03918C18.6727 2.90643 18.5294 2.77712 18.383 2.65158ZM25.4046 0C23.0784 0 20.9159 0.762117 19.1151 2.069C19.2073 2.15119 19.3004 2.23236 19.3897 2.31695C22.0662 4.85437 23.6013 8.52257 23.6013 12.381C23.6013 16.2387 22.0662 19.9069 19.39 22.4446C19.3011 22.5286 19.2073 22.61 19.1151 22.6926C20.9159 23.9994 23.0784 24.7615 25.4046 24.7615C31.6793 24.7615 36.766 19.2183 36.766 12.381C36.766 5.54288 31.6793 0 25.4046 0ZM17.3762 22.4446C17.4649 22.5286 17.5586 22.61 17.6508 22.6926C15.8501 23.9998 13.6876 24.7619 11.3613 24.7619C5.08641 24.7619 0 19.2183 0 12.381C0 5.54323 5.08641 0 11.3613 0C13.6873 0 15.8497 0.762117 17.6508 2.069C17.5586 2.15119 17.4656 2.23236 17.3762 2.31662C14.6997 4.85437 13.1646 8.52257 13.1646 12.381C13.1646 16.239 14.6997 19.9071 17.3762 22.4446ZM59.4568 12.4343C59.4568 10.9874 60.3259 9.79883 61.7486 9.79883C63.1081 9.79883 64.025 10.9358 64.025 12.4343C64.025 13.9327 63.1081 15.0696 61.7486 15.0696C60.3259 15.0696 59.4568 13.8814 59.4568 12.4343ZM65.5739 12.4343V8.31759H63.93V9.31632C63.4083 8.57587 62.6181 8.11089 61.5431 8.11089C59.4249 8.11089 57.7654 9.91955 57.7654 12.4343C57.7654 14.9493 59.4249 16.758 61.5431 16.758C62.6181 16.758 63.4083 16.293 63.93 15.5521V16.5517H65.5739V12.4343ZM121.088 12.4343C121.088 10.9874 121.957 9.79883 123.381 9.79883C124.74 9.79883 125.656 10.9358 125.656 12.4343C125.656 13.9327 124.74 15.0696 123.381 15.0696C121.957 15.0696 121.088 13.8814 121.088 12.4343ZM129.045 16.1606V16.2899H129.154C129.18 16.2899 129.199 16.2844 129.213 16.2737C129.229 16.2631 129.236 16.2465 129.236 16.2242C129.236 16.2032 129.229 16.187 129.213 16.1764C129.199 16.1654 129.18 16.1606 129.154 16.1606H129.045ZM129.156 16.0694C129.212 16.0694 129.256 16.0832 129.288 16.1111C129.318 16.1386 129.334 16.1768 129.334 16.2242C129.334 16.2648 129.322 16.2975 129.296 16.3236C129.272 16.3498 129.236 16.3656 129.192 16.3718L129.338 16.5548H129.223L129.088 16.3727H129.045V16.5548H128.949V16.0694H129.156ZM129.127 16.7215C129.178 16.7215 129.227 16.7105 129.271 16.6895C129.316 16.6679 129.355 16.6386 129.389 16.6021C129.423 16.5657 129.449 16.5224 129.468 16.4729C129.488 16.4233 129.497 16.3704 129.497 16.3139C129.497 16.2576 129.488 16.205 129.468 16.1551C129.449 16.106 129.423 16.0629 129.389 16.0257C129.355 15.9893 129.316 15.9605 129.271 15.9394C129.227 15.9185 129.178 15.9079 129.127 15.9079C129.075 15.9079 129.026 15.9185 128.98 15.9394C128.934 15.9605 128.893 15.9893 128.861 16.0257C128.827 16.0629 128.801 16.106 128.781 16.1551C128.761 16.205 128.751 16.2576 128.751 16.3139C128.751 16.3704 128.761 16.4233 128.781 16.4729C128.801 16.5224 128.827 16.5657 128.861 16.6021C128.893 16.6386 128.934 16.6679 128.98 16.6895C129.026 16.7105 129.075 16.7215 129.127 16.7215ZM129.127 15.7915C129.195 15.7915 129.258 15.8054 129.317 15.8325C129.376 15.86 129.428 15.8971 129.471 15.9446C129.516 15.992 129.551 16.0474 129.576 16.1111C129.602 16.1746 129.615 16.2421 129.615 16.3139C129.615 16.3858 129.602 16.4532 129.576 16.5165C129.551 16.5798 129.516 16.6349 129.471 16.6819C129.428 16.7298 129.376 16.7669 129.317 16.7951C129.258 16.823 129.195 16.8367 129.127 16.8367C129.058 16.8367 128.994 16.823 128.934 16.7951C128.874 16.7669 128.822 16.7298 128.778 16.6819C128.734 16.6349 128.699 16.5798 128.674 16.5165C128.649 16.4532 128.636 16.3858 128.636 16.3139C128.636 16.2421 128.649 16.1746 128.674 16.1111C128.699 16.0474 128.734 15.992 128.778 15.9446C128.822 15.8971 128.874 15.86 128.934 15.8325C128.994 15.8054 129.058 15.7915 129.127 15.7915ZM127.206 12.4343V5.01015H125.561V9.31632C125.04 8.57587 124.249 8.11089 123.174 8.11089C121.056 8.11089 119.397 9.91955 119.397 12.4343C119.397 14.9493 121.056 16.758 123.174 16.758C124.249 16.758 125.04 16.293 125.561 15.5521V16.5517H127.206V12.4343ZM85.965 9.71286C87.0241 9.71286 87.7039 10.4361 87.8778 11.711H83.9575C84.1314 10.5224 84.7954 9.71286 85.965 9.71286ZM85.9969 8.11089C83.7836 8.11089 82.2347 9.86762 82.2347 12.4343C82.2347 15.0529 83.8467 16.758 86.1073 16.758C87.2456 16.758 88.2887 16.4481 89.2058 15.6042L88.3995 14.2773C87.7671 14.8289 86.961 15.1388 86.202 15.1388C85.1432 15.1388 84.1787 14.6048 83.9418 13.1235H89.5533C89.569 12.8993 89.5849 12.6757 89.5849 12.4343C89.569 9.86762 88.1151 8.11089 85.9969 8.11089ZM105.834 12.4343C105.834 10.9874 106.704 9.79883 108.127 9.79883C109.486 9.79883 110.403 10.9358 110.403 12.4343C110.403 13.9327 109.486 15.0696 108.127 15.0696C106.704 15.0696 105.834 13.8814 105.834 12.4343ZM111.952 12.4343V8.31759H110.308V9.31632C109.787 8.57587 108.996 8.11089 107.921 8.11089C105.803 8.11089 104.143 9.91955 104.143 12.4343C104.143 14.9493 105.803 16.758 107.921 16.758C108.996 16.758 109.787 16.293 110.308 15.5521V16.5517H111.952V12.4343ZM96.5557 12.4343C96.5557 14.9321 98.1522 16.758 100.587 16.758C101.725 16.758 102.483 16.4821 103.305 15.7761L102.515 14.3293C101.898 14.8118 101.25 15.0696 100.539 15.0696C99.2275 15.0529 98.263 14.019 98.263 12.4343C98.263 10.8495 99.2275 9.81603 100.539 9.79883C101.25 9.79883 101.898 10.0571 102.515 10.5396L103.305 9.09277C102.483 8.38637 101.725 8.11089 100.587 8.11089C98.1522 8.11089 96.5557 9.93675 96.5557 12.4343ZM117.737 8.11089C116.789 8.11089 116.172 8.59307 115.746 9.31632V8.31759H114.117V16.5517H115.761V11.9349C115.761 10.574 116.299 9.81603 117.374 9.81603C117.706 9.81603 118.053 9.86762 118.401 10.0227L118.907 8.33479C118.544 8.17968 118.07 8.11089 117.737 8.11089ZM73.6989 8.97206C72.9083 8.40357 71.8176 8.11089 70.6164 8.11089C68.7036 8.11089 67.4707 9.10963 67.4707 10.7463C67.4707 12.09 68.3878 12.9168 70.0786 13.175L70.8535 13.2957C71.7544 13.4333 72.1811 13.6917 72.1811 14.1569C72.1811 14.7942 71.5806 15.156 70.4584 15.156C69.3203 15.156 68.4982 14.7598 67.9447 14.2949L67.1701 15.6901C68.0715 16.4133 69.2095 16.758 70.4425 16.758C72.6239 16.758 73.8882 15.6382 73.8882 14.071C73.8882 12.6238 72.8925 11.8658 71.2485 11.6075L70.4741 11.4868C69.7628 11.3836 69.1938 11.2285 69.1938 10.6775C69.1938 10.0743 69.7312 9.71286 70.6322 9.71286C71.5964 9.71286 72.529 10.109 72.9875 10.4189L73.6989 8.97206ZM94.896 8.11089C93.9476 8.11089 93.3313 8.59307 92.9042 9.31632V8.31759H91.2761V16.5517H92.92V11.9349C92.92 10.574 93.4574 9.81603 94.5327 9.81603C94.8644 9.81603 95.2122 9.86762 95.5599 10.0227L96.0659 8.33479C95.7023 8.17968 95.228 8.11089 94.896 8.11089ZM80.8751 8.31759H78.1878V5.81974H76.5285V8.31759H74.9949V9.95394H76.5285V13.7092C76.5285 15.621 77.2079 16.758 79.152 16.758C79.8636 16.758 80.6854 16.5169 81.2071 16.1207L80.7331 14.5879C80.2427 14.8977 79.7052 15.0529 79.2788 15.0529C78.4568 15.0529 78.1878 14.5015 78.1878 13.6744V9.95394H80.8751V8.31759ZM56.311 16.5517V11.3836C56.311 9.43703 55.1729 8.12809 53.3393 8.11089C52.3751 8.0937 51.3792 8.42076 50.6839 9.57495C50.1622 8.66219 49.3401 8.11089 48.1863 8.11089C47.38 8.11089 46.5897 8.36918 45.9734 9.33386V8.31759H44.3291V16.5517H45.9891V11.9864C45.9891 10.5568 46.7163 9.79883 47.8385 9.79883C48.9292 9.79883 49.4825 10.574 49.4825 11.9693V16.5517H51.1421V11.9864C51.1421 10.5568 51.9008 9.79883 52.9915 9.79883C54.1138 9.79883 54.6512 10.574 54.6512 11.9693V16.5517H56.311ZM36.4109 20.0526V19.5723H36.296L36.1635 19.9027L36.031 19.5723H35.916V20.0526H35.9971V19.6902L36.1215 20.0029H36.2058L36.3298 19.6895V20.0526H36.4109ZM35.6818 20.0526V19.654H35.8293V19.5732H35.4537V19.654H35.6014V20.0526H35.6818Z" fill="#F4AB75" fill-opacity="0.6"/>
</svg>
