<svg width="45" height="45" viewBox="0 0 45 45" fill="none" xmlns="http://www.w3.org/2000/svg">
<rect width="45" height="45" rx="5" fill="#F4AB75"/>
<path d="M35.0206 18.6771C34.019 18.6771 33.2056 19.5268 33.2056 20.5702C33.2056 21.6144 34.019 22.463 35.0206 22.463C36.019 22.463 36.8316 21.614 36.8316 20.5702C36.8316 19.5268 36.0186 18.6771 35.0206 18.6771ZM8.9786 18.6771C7.97693 18.6771 7.16353 19.5268 7.16353 20.5702C7.16353 21.6144 7.97693 22.463 8.9786 22.463C9.97767 22.463 10.7907 21.614 10.7907 20.5702C10.7907 19.5268 9.97767 18.6771 8.9786 18.6771ZM29.6294 15.2339C28.1421 15.2339 26.9358 16.4978 26.9358 18.0533C26.9358 19.6058 28.1421 20.8673 29.6294 20.8673C31.117 20.8673 32.3271 19.6058 32.3271 18.0533C32.3271 16.4993 31.117 15.2339 29.6294 15.2339ZM37.9955 32.3676H34.9243V26.4596C34.9243 25.4446 34.6389 24.5023 34.1805 23.6806C34.4506 23.5981 34.7278 23.5394 35.0206 23.5394C36.6582 23.5394 37.9955 24.9371 37.9955 26.6528V32.3676ZM14.3658 15.2339C12.8774 15.2339 11.6681 16.4978 11.6681 18.0533C11.6681 19.6058 12.8774 20.8673 14.3658 20.8673C15.8493 20.8673 17.0586 19.6058 17.0586 18.0533C17.0586 16.4993 15.8497 15.2339 14.3658 15.2339ZM8.9786 23.5394C9.27144 23.5394 9.54493 23.5977 9.81581 23.6806C9.35256 24.5023 9.072 25.4446 9.072 26.4596V32.3676H6V26.6528C6 24.9367 7.33805 23.5394 8.9786 23.5394ZM21.9948 9.60474C19.7994 9.60474 18.0097 11.4733 18.0097 13.7701C18.0097 16.0665 19.7976 17.9375 21.9948 17.9375C24.1924 17.9375 25.9825 16.0665 25.9825 13.7701C25.9844 11.473 24.1924 9.60474 21.9948 9.60474ZM33.9379 34.5663H29.2327V25.5772C29.2327 24.3409 28.9206 23.191 28.416 22.16C28.8011 22.041 29.206 21.9566 29.6298 21.9566C32.0037 21.9566 33.9379 23.9742 33.9379 26.4596V34.5663ZM14.758 25.5772V34.5663H10.0588V26.4596C10.0588 23.9765 11.9903 21.9566 14.368 21.9566C14.7918 21.9566 15.1926 22.041 15.5769 22.16C15.072 23.191 14.758 24.3409 14.758 25.5772ZM15.7444 37.1684H28.246V25.5772C28.246 21.9745 25.4407 19.0446 21.9944 19.0446C18.5455 19.0446 15.7444 21.9745 15.7444 25.5772V37.1684Z" fill="#98450D"/>
</svg>
