<svg width="45" height="45" viewBox="0 0 45 45" fill="none" xmlns="http://www.w3.org/2000/svg">
<path d="M22.5 0C34.9268 0 45 10.0732 45 22.5C45 34.9268 34.9268 45 22.5 45C10.0732 45 0 34.9268 0 22.5C0 10.0732 10.0732 0 22.5 0ZM30.2615 31.6712C30.6753 30.4014 32.6142 17.7466 32.8539 15.253C32.9263 14.4978 32.6876 13.996 32.22 13.772C31.6546 13.5 30.8172 13.636 29.8458 13.9862C28.5134 14.4665 11.4799 21.6988 10.4958 22.1175C9.5625 22.5137 8.68011 22.9461 8.68011 23.5722C8.68011 24.0124 8.94131 24.2599 9.6613 24.5172C10.4107 24.7842 12.2977 25.3565 13.412 25.6637C14.4851 25.9601 15.707 25.7028 16.3917 25.2773C17.1176 24.8263 25.4945 19.2209 26.0961 18.7298C26.6967 18.2387 27.1761 18.8677 26.685 19.3598C26.1939 19.8509 20.4437 25.4318 19.6855 26.2047C18.765 27.1428 19.4185 28.1152 20.0358 28.5046C20.7411 28.9487 25.8134 32.3511 26.5774 32.897C27.3414 33.4428 28.1162 33.6903 28.8254 33.6903C29.5347 33.6903 29.9084 32.7561 30.2615 31.6712Z" fill="#F4AB75"/>
</svg>
