<?xml version="1.0" encoding="UTF-8"?>
<!DOCTYPE svg PUBLIC "-//W3C//DTD SVG 1.1//EN" "http://www.w3.org/Graphics/SVG/1.1/DTD/svg11.dtd">
<svg xmlns="http://www.w3.org/2000/svg" version="1.1" width="32px" height="32px" style="shape-rendering:geometricPrecision; text-rendering:geometricPrecision; image-rendering:optimizeQuality; fill-rule:evenodd; clip-rule:evenodd" xmlns:xlink="http://www.w3.org/1999/xlink">
<g><path fill="#ffebce" d="M 19.5,3.5 C 20.8333,3.5 22.1667,3.5 23.5,3.5C 23.6646,6.51838 23.498,9.51838 23,12.5C 22.6924,13.3081 22.1924,13.9747 21.5,14.5C 20.549,13.6744 19.549,13.5078 18.5,14C 19.6872,15.0195 20.6872,16.1861 21.5,17.5C 20.018,19.4829 18.3513,21.3163 16.5,23C 17.1667,23.6667 17.8333,24.3333 18.5,25C 15.0371,26.4694 11.3704,27.3028 7.5,27.5C 7.33537,24.4816 7.50204,21.4816 8,18.5C 8.30762,17.6919 8.80762,17.0253 9.5,16.5C 10.451,17.3256 11.451,17.4922 12.5,17C 11.3128,15.9805 10.3128,14.8139 9.5,13.5C 10.982,11.5171 12.6487,9.68375 14.5,8C 13.8333,7.33333 13.1667,6.66667 12.5,6C 14.8329,4.95701 17.1663,4.12368 19.5,3.5 Z M 17.5,6.5 C 18.8333,6.5 20.1667,6.5 21.5,6.5C 21.6495,7.55198 21.4828,8.55198 21,9.5C 18.3723,11.1255 16.039,13.1255 14,15.5C 13.6258,14.5838 13.1258,13.7504 12.5,13C 14.7899,11.2228 16.4566,9.05616 17.5,6.5 Z M 16.5,15.5 C 18.0847,16.0024 18.5847,17.0024 18,18.5C 15.7608,21.6079 12.9275,23.6079 9.5,24.5C 9.35055,23.448 9.51722,22.448 10,21.5C 12.6637,20.0016 14.8304,18.0016 16.5,15.5 Z"/></g>
</svg>
