<svg width="11" height="17" fill="none" xmlns="http://www.w3.org/2000/svg">
    <path d="M5.317 16.817h-.72v-1.128c-1.968-.064-3.336-.504-4.104-1.32l.48-.528c.784.72 1.992 1.096 3.624 1.128V8.537a20.454 20.454 0 0 1-1.536-.528c-.4-.176-.816-.4-1.248-.672A2.803 2.803 0 0 1 .877 6.28C.669 5.865.565 5.377.565 4.817c0-1.184.376-2.072 1.128-2.664.752-.608 1.72-.936 2.904-.984V.017h.72v1.152c1.776.048 3.056.488 3.84 1.32l-.48.528c-.72-.688-1.84-1.064-3.36-1.128v6.096c.56.16.96.28 1.2.36.24.08.592.208 1.056.384.48.176.832.352 1.056.528.24.176.496.4.768.672.288.272.488.584.6.936.112.352.168.752.168 1.2 0 1.056-.416 1.912-1.248 2.568-.832.64-2.032.992-3.6 1.056v1.128Zm0-8.064v6.192c1.36-.08 2.384-.392 3.072-.936.704-.56 1.056-1.2 1.056-1.92 0-.4-.088-.76-.264-1.08a2.654 2.654 0 0 0-.576-.816c-.208-.208-.528-.408-.96-.6a9.42 9.42 0 0 0-1.08-.432 16.577 16.577 0 0 0-1.248-.408Zm-.72-.984v-5.88C2.389 2 1.285 2.993 1.285 4.865c0 .784.28 1.384.84 1.8.576.416 1.4.784 2.472 1.104Z" fill="#FD9D27"/>
    <path d="M5.317 16.817v1h1v-1h-1Zm-.72 0h-1v1h1v-1Zm0-1.128h1v-.968l-.967-.032-.033 1Zm-4.104-1.32-.74-.673-.622.684.634.674.728-.685Zm.48-.528.676-.737-.74-.68-.676.744.74.673Zm3.624 1.128-.02 1 1.02.02v-1.02h-1Zm0-6.432h1v-.739l-.706-.217-.294.956Zm-1.536-.528-.403.915.016.007.016.006.371-.928Zm-1.248-.672-.57.822.019.012.018.012.533-.846ZM.877 6.28l-.894.447.894-.447Zm.816-4.128.619.786.01-.009-.629-.777Zm2.904-.984.04.999.96-.039v-.96h-1Zm0-1.152v-1h-1v1h1Zm.72 0h1v-1h-1v1Zm0 1.152h-1v.973l.973.026.027-1Zm3.84 1.32.74.672.623-.684-.635-.674-.728.686Zm-.48.528-.69.723.74.708.69-.759-.74-.672Zm-3.36-1.128.042-1L4.317.847v1.043h1Zm0 6.096h-1v.754l.725.207.275-.961Zm1.2.36-.316.948.316-.948Zm1.056.384-.355.935.01.004.345-.94Zm1.056.528-.618.786.013.01.014.01.591-.806Zm.768.672-.707.707.01.01.01.01.687-.727Zm-.48 4.704.61.792.01-.007-.62-.785Zm-3.6 1.056-.04-1-.96.04v.96h1Zm0-6.936.282-.96-1.282-.377v1.337h1Zm0 6.192h-1v1.06l1.059-.062-.059-.998Zm3.072-.936.62.784.003-.002-.623-.782Zm.792-3-.903.43.013.026.014.026.876-.482Zm-.576-.816-.707.707.013.013.014.012.68-.732Zm-.96-.6-.419.908.006.003.007.003.406-.914Zm-1.08-.432-.362.932.03.011.03.01.302-.953ZM4.597 7.769l-.286.958 1.286.384V7.769h-1Zm0-5.88h1V.837L4.547.89l.05.999ZM2.125 6.665l-.596.803.01.007.586-.81Zm3.192 9.152h-.72v2h.72v-2Zm.28 1v-1.128h-2v1.128h2Zm-.967-2.128c-1.889-.061-2.918-.484-3.409-1.006l-1.456 1.371c1.045 1.11 2.752 1.568 4.8 1.634l.065-1.999Zm-3.397.352.48-.528-1.48-1.345-.48.528 1.48 1.345Zm-.936-.464c1.038.954 2.53 1.357 4.28 1.392l.04-2c-1.514-.03-2.438-.378-2.968-.865L.297 14.577Zm5.3.392V8.537h-2v6.432h2ZM4.891 7.58a19.49 19.49 0 0 1-1.459-.5L2.69 8.936c.434.174.975.36 1.613.555l.588-1.911Zm-1.427-.488a8.661 8.661 0 0 1-1.118-.603L1.28 8.183c.467.294.927.542 1.378.741l.806-1.83Zm-1.082-.578c-.29-.201-.484-.429-.61-.681l-1.79.894c.29.58.72 1.056 1.262 1.43l1.138-1.643Zm-.61-.681c-.126-.252-.207-.581-.207-1.017h-2c0 .684.127 1.33.418 1.91l1.788-.894Zm-.207-1.017c0-.958.292-1.52.747-1.879L1.074 1.367c-1.05.826-1.509 2.04-1.509 3.45h2Zm.757-1.887c.55-.444 1.297-.72 2.316-.762L4.557.17c-1.35.054-2.539.434-3.493 1.205L2.322 2.93ZM5.597 1.17V.017h-2v1.152h2Zm-1-.152h.72v-2h-.72v2Zm-.28-1v1.152h2V.017h-2Zm.973 2.151c1.654.045 2.617.452 3.14 1.007l1.455-1.372C8.839.693 7.242.22 5.345.169l-.055 2Zm3.127-.352-.48.528 1.48 1.345.48-.528-1.48-1.345Zm.95.478C8.4 1.369 6.999.959 5.36.89l-.084 1.998c1.4.059 2.24.4 2.711.852l1.382-1.446Zm-5.05-.405v6.096h2V1.889h-2Zm.725 7.057c.56.16.941.275 1.159.347l.632-1.897c-.262-.087-.68-.213-1.241-.373l-.55 1.923Zm1.159.347c.22.074.556.196 1.017.37l.71-1.87a30.87 30.87 0 0 0-1.095-.397l-.632 1.897Zm1.028.375c.446.163.682.296.782.375L9.247 8.47c-.348-.273-.816-.492-1.33-.68L7.23 9.668Zm.809.395c.189.139.406.327.652.573l1.414-1.414a7.749 7.749 0 0 0-.884-.772l-1.182 1.613Zm.672.593c.174.164.277.333.334.512l1.906-.606a3.19 3.19 0 0 0-.866-1.36L8.71 10.656Zm.334.512c.075.236.121.53.121.897h2c0-.53-.066-1.035-.215-1.503l-1.906.606Zm.121.897c0 .748-.275 1.315-.867 1.782l1.238 1.571c1.072-.845 1.629-1.99 1.629-3.353h-2Zm-.858 1.775c-.605.466-1.573.79-3.03.85l.08 1.998c1.679-.069 3.111-.448 4.17-1.263l-1.22-1.585Zm-3.99 1.849v1.128h2v-1.128h-2Zm0-6.936v6.192h2V8.753h-2Zm1.059 7.19c1.46-.086 2.718-.426 3.633-1.15l-1.24-1.569c-.46.364-1.25.648-2.51.722l.117 1.997Zm3.636-1.152c.877-.697 1.433-1.603 1.433-2.702h-2c0 .34-.148.715-.678 1.137l1.245 1.565Zm1.433-2.702c0-.552-.123-1.08-.388-1.562l-1.752.964c.087.158.14.35.14.598h2Zm-.361-1.51a3.649 3.649 0 0 0-.799-1.12l-1.36 1.466c.113.106.236.268.353.514l1.806-.86Zm-.772-1.093c-.331-.332-.776-.592-1.26-.807l-.813 1.828c.38.168.574.308.659.393l1.414-1.414Zm-1.248-.801c-.44-.203-.84-.365-1.198-.478l-.602 1.907c.25.08.57.205.962.387l.838-1.816Zm-1.137-.456A17.493 17.493 0 0 0 5.6 7.793l-.564 1.92c.535.157.92.283 1.168.38l.724-1.864Zm-1.33-.46v-5.88h-2v5.88h2ZM4.547.89c-1.226.062-2.314.374-3.102 1.083-.816.733-1.16 1.751-1.16 2.892h2c0-.732.208-1.145.496-1.404.316-.284.884-.524 1.867-.574L4.546.89ZM.284 4.865c0 1.055.396 1.972 1.244 2.602L2.72 5.862c-.272-.202-.436-.485-.436-.997h-2Zm1.255 2.61c.703.509 1.646.916 2.771 1.252l.572-1.917c-1.019-.304-1.724-.632-2.172-.956L1.54 7.475Z" fill="#E36060"/>
</svg>
