<svg width="50" height="30" viewBox="0 0 50 30" fill="none" xmlns="http://www.w3.org/2000/svg">
<g clip-path="url(#clip0_527_375)">
<path d="M47.1975 1.84128C49.4522 3.87296 49.7474 7.10125 49.7474 15C49.7474 22.8988 49.4522 26.1271 47.1975 28.1588C44.942 30.1905 42.5936 30.3509 24.9999 30.3509C7.40623 30.3509 5.05787 30.1905 2.80232 28.1588C0.547644 26.1271 0.252441 22.8988 0.252441 15C0.252441 7.10125 0.547644 3.87296 2.80232 1.84128C5.05699 -0.190413 7.40623 -0.35083 24.9999 -0.35083C42.5936 -0.35083 44.942 -0.190413 47.1975 1.84128ZM20.9908 21.5058L33.0137 15.3316L20.9908 9.25421V21.5058Z" fill="#F4AB75"/>
</g>
<defs>
<clipPath id="clip0_527_375">
<rect width="50" height="30" fill="white"/>
</clipPath>
</defs>
</svg>
